HIERARCHY
ROOT Root
{
  OFFSET 0.0 0.0 0.0
  CHANNELS 6 Xposition Yposition Zposition Zrotation Yrotation Xrotation
  JOINT Hips
  {
    OFFSET 0.0 100.0 0.0
    CHANNELS 6 Xposition Yposition Zposition Zrotation Yrotation Xrotation
    JOINT Spine1
    {
      OFFSET 5.003913 -0.037094 -0.013727
      CHANNELS 3 Zrotation Yrotation Xrotation
      JOINT Spine2
      {
        OFFSET 7.125363 -1e-06 0.0
        CHANNELS 3 Zrotation Yrotation Xrotation
        JOINT Chest
        {
          OFFSET 7.594027 1e-06 0.0
          CHANNELS 3 Zrotation Yrotation Xrotation
          JOINT Neck1
          {
            OFFSET 26.313086 -0.460272 -0.181672
            CHANNELS 3 Zrotation Yrotation Xrotation
            JOINT Neck2
            {
              OFFSET 8.045911 0.0 0.0
              CHANNELS 3 Zrotation Yrotation Xrotation
              JOINT Head
              {
                OFFSET 6.432774 0.0 0.0
                CHANNELS 3 Zrotation Yrotation Xrotation
                JOINT HeadEnd
                {
                  OFFSET 16.169773 0.06451 0.00362
                  CHANNELS 3 Zrotation Yrotation Xrotation
                }
                JOINT Jaw
                {
                  OFFSET 0.108741 3.12938 0.002639
                  CHANNELS 3 Zrotation Yrotation Xrotation
                }
                JOINT LeftEye
                {
                  OFFSET 4.45173 8.166359 3.206392
                  CHANNELS 3 Zrotation Yrotation Xrotation
                }
                JOINT RightEye
                {
                  OFFSET 4.436895 8.135758 -3.222429
                  CHANNELS 3 Zrotation Yrotation Xrotation
                }
              }
            }
          }
          JOINT LeftShoulder
          {
            OFFSET 23.218927 5.195579 1.621656
            CHANNELS 3 Zrotation Yrotation Xrotation
            JOINT LeftArm
            {
              OFFSET 15.902118 2e-06 -2e-06
              CHANNELS 3 Zrotation Yrotation Xrotation
              JOINT LeftForeArm
              {
                OFFSET 28.739307 0.0 -1e-06
                CHANNELS 3 Zrotation Yrotation Xrotation
                JOINT LeftHand
                {
                  OFFSET 27.093981 -4e-06 0.0
                  CHANNELS 3 Zrotation Yrotation Xrotation
                  JOINT LeftHandThumb1
                  {
                    OFFSET 2.276781 3.380274 0.83384
                    CHANNELS 3 Zrotation Yrotation Xrotation
                    JOINT LeftHandThumb2
                    {
                      OFFSET 4.705309 -1e-06 -1e-06
                      CHANNELS 3 Zrotation Yrotation Xrotation
                      JOINT LeftHandThumb3
                      {
                        OFFSET 2.798515 0.0 3e-06
                        CHANNELS 3 Zrotation Yrotation Xrotation
                        JOINT LeftHandThumbEnd
                        {
                          OFFSET 3.180793 4e-06 -4e-06
                          CHANNELS 3 Zrotation Yrotation Xrotation
                        }
                      }
                    }
                  }
                  JOINT LeftHandIndex1
                  {
                    OFFSET 3.247786 2.352677 0.137192
                    CHANNELS 3 Zrotation Yrotation Xrotation
                    JOINT LeftHandIndex2
                    {
                      OFFSET 6.367095 1e-06 0.0
                      CHANNELS 3 Zrotation Yrotation Xrotation
                      JOINT LeftHandIndex3
                      {
                        OFFSET 3.662364 0.0 0.0
                        CHANNELS 3 Zrotation Yrotation Xrotation
                        JOINT LeftHandIndex4
                        {
                          OFFSET 2.329242 4e-06 -4e-06
                          CHANNELS 3 Zrotation Yrotation Xrotation
                          JOINT LeftHandIndexEnd
                          {
                            OFFSET 2.767823 1e-06 0.0
                            CHANNELS 3 Zrotation Yrotation Xrotation
                          }
                        }
                      }
                    }
                  }
                  JOINT LeftHandMiddle1
                  {
                    OFFSET 3.163612 0.945023 -0.406112
                    CHANNELS 3 Zrotation Yrotation Xrotation
                    JOINT LeftHandMiddle2
                    {
                      OFFSET 6.276789 3e-06 0.0
                      CHANNELS 3 Zrotation Yrotation Xrotation
                      JOINT LeftHandMiddle3
                      {
                        OFFSET 4.35652 -1e-06 4e-06
                        CHANNELS 3 Zrotation Yrotation Xrotation
                        JOINT LeftHandMiddle4
                        {
                          OFFSET 2.996877 0.0 8e-06
                          CHANNELS 3 Zrotation Yrotation Xrotation
                          JOINT LeftHandMiddleEnd
                          {
                            OFFSET 2.323256 3e-06 -4e-06
                            CHANNELS 3 Zrotation Yrotation Xrotation
                          }
                        }
                      }
                    }
                  }
                  JOINT LeftHandRing1
                  {
                    OFFSET 2.882606 -0.309162 0.107445
                    CHANNELS 3 Zrotation Yrotation Xrotation
                    JOINT LeftHandRing2
                    {
                      OFFSET 6.033198 0.0 4e-06
                      CHANNELS 3 Zrotation Yrotation Xrotation
                      JOINT LeftHandRing3
                      {
                        OFFSET 4.350578 3e-06 0.0
                        CHANNELS 3 Zrotation Yrotation Xrotation
                        JOINT LeftHandRing4
                        {
                          OFFSET 2.651321 2e-06 -7e-06
                          CHANNELS 3 Zrotation Yrotation Xrotation
                          JOINT LeftHandRingEnd
                          {
                            OFFSET 1.937663 1e-06 -4e-06
                            CHANNELS 3 Zrotation Yrotation Xrotation
                          }
                        }
                      }
                    }
                  }
                  JOINT LeftHandPinky1
                  {
                    OFFSET 2.865315 -1.525436 0.575687
                    CHANNELS 3 Zrotation Yrotation Xrotation
                    JOINT LeftHandPinky2
                    {
                      OFFSET 5.54936 1e-06 -8e-06
                      CHANNELS 3 Zrotation Yrotation Xrotation
                      JOINT LeftHandPinky3
                      {
                        OFFSET 3.070974 0.0 -4e-06
                        CHANNELS 3 Zrotation Yrotation Xrotation
                        JOINT LeftHandPinky4
                        {
                          OFFSET 1.549672 1e-06 0.0
                          CHANNELS 3 Zrotation Yrotation Xrotation
                          JOINT LeftHandPinkyEnd
                          {
                            OFFSET 1.952123 0.0 0.0
                            CHANNELS 3 Zrotation Yrotation Xrotation
                          }
                        }
                      }
                    }
                  }
                }
              }
            }
          }
          JOINT RightShoulder
          {
            OFFSET 23.161716 5.296122 -1.380114
            CHANNELS 3 Zrotation Yrotation Xrotation
            JOINT RightArm
            {
              OFFSET -16.027195 -2e-06 1.1e-05
              CHANNELS 3 Zrotation Yrotation Xrotation
              JOINT RightForeArm
              {
                OFFSET -28.736639 4e-06 2e-06
                CHANNELS 3 Zrotation Yrotation Xrotation
                JOINT RightHand
                {
                  OFFSET -27.133619 6e-06 0.0
                  CHANNELS 3 Zrotation Yrotation Xrotation
                  JOINT RightHandThumb1
                  {
                    OFFSET -2.274328 -3.351035 -0.83067
                    CHANNELS 3 Zrotation Yrotation Xrotation
                    JOINT RightHandThumb2
                    {
                      OFFSET -4.703594 -3e-06 2e-06
                      CHANNELS 3 Zrotation Yrotation Xrotation
                      JOINT RightHandThumb3
                      {
                        OFFSET -2.794935 -4e-06 -3e-06
                        CHANNELS 3 Zrotation Yrotation Xrotation
                        JOINT RightHandThumbEnd
                        {
                          OFFSET -3.183852 4e-06 1e-06
                          CHANNELS 3 Zrotation Yrotation Xrotation
                        }
                      }
                    }
                  }
                  JOINT RightHandIndex1
                  {
                    OFFSET -3.253496 -2.33755 -0.127667
                    CHANNELS 3 Zrotation Yrotation Xrotation
                    JOINT RightHandIndex2
                    {
                      OFFSET -6.344434 0.0 0.0
                      CHANNELS 3 Zrotation Yrotation Xrotation
                      JOINT RightHandIndex3
                      {
                        OFFSET -3.654871 0.0 -8e-06
                        CHANNELS 3 Zrotation Yrotation Xrotation
                        JOINT RightHandIndex4
                        {
                          OFFSET -2.327586 -1e-06 0.0
                          CHANNELS 3 Zrotation Yrotation Xrotation
                          JOINT RightHandIndexEnd
                          {
                            OFFSET -2.770001 3e-06 8e-06
                            CHANNELS 3 Zrotation Yrotation Xrotation
                          }
                        }
                      }
                    }
                  }
                  JOINT RightHandMiddle1
                  {
                    OFFSET -3.168223 -0.944764 0.411762
                    CHANNELS 3 Zrotation Yrotation Xrotation
                    JOINT RightHandMiddle2
                    {
                      OFFSET -6.266691 -1e-06 -4e-06
                      CHANNELS 3 Zrotation Yrotation Xrotation
                      JOINT RightHandMiddle3
                      {
                        OFFSET -4.348901 0.0 0.0
                        CHANNELS 3 Zrotation Yrotation Xrotation
                        JOINT RightHandMiddle4
                        {
                          OFFSET -3.00024 2e-06 -4e-06
                          CHANNELS 3 Zrotation Yrotation Xrotation
                          JOINT RightHandMiddleEnd
                          {
                            OFFSET -2.321477 -4e-06 -4e-06
                            CHANNELS 3 Zrotation Yrotation Xrotation
                          }
                        }
                      }
                    }
                  }
                  JOINT RightHandRing1
                  {
                    OFFSET -2.885654 0.293261 -0.119232
                    CHANNELS 3 Zrotation Yrotation Xrotation
                    JOINT RightHandRing2
                    {
                      OFFSET -6.032835 -1e-06 -4e-06
                      CHANNELS 3 Zrotation Yrotation Xrotation
                      JOINT RightHandRing3
                      {
                        OFFSET -4.33881 0.0 -4e-06
                        CHANNELS 3 Zrotation Yrotation Xrotation
                        JOINT RightHandRing4
                        {
                          OFFSET -2.654903 -4e-06 -4e-06
                          CHANNELS 3 Zrotation Yrotation Xrotation
                          JOINT RightHandRingEnd
                          {
                            OFFSET -1.935122 0.0 4e-06
                            CHANNELS 3 Zrotation Yrotation Xrotation
                          }
                        }
                      }
                    }
                  }
                  JOINT RightHandPinky1
                  {
                    OFFSET -2.866241 1.503904 -0.60527
                    CHANNELS 3 Zrotation Yrotation Xrotation
                    JOINT RightHandPinky2
                    {
                      OFFSET -5.553177 -2e-06 0.0
                      CHANNELS 3 Zrotation Yrotation Xrotation
                      JOINT RightHandPinky3
                      {
                        OFFSET -3.062664 -1e-06 -4e-06
                        CHANNELS 3 Zrotation Yrotation Xrotation
                        JOINT RightHandPinky4
                        {
                          OFFSET -1.546529 2e-06 4e-06
                          CHANNELS 3 Zrotation Yrotation Xrotation
                          JOINT RightHandPinkyEnd
                          {
                            OFFSET -1.952341 0.0 -4e-06
                            CHANNELS 3 Zrotation Yrotation Xrotation
                          }
                        }
                      }
                    }
                  }
                }
              }
            }
          }
        }
      }
    }
    JOINT LeftLeg
    {
      OFFSET -8.443107 2.567604 10.043214
      CHANNELS 3 Zrotation Yrotation Xrotation
      JOINT LeftShin
      {
        OFFSET 43.229198 1e-06 -1e-06
        CHANNELS 3 Zrotation Yrotation Xrotation
        JOINT LeftFoot
        {
          OFFSET 42.298611 1e-06 1e-06
          CHANNELS 3 Zrotation Yrotation Xrotation
          JOINT LeftToeBase
          {
            OFFSET 14.165858 1e-06 0.0
            CHANNELS 3 Zrotation Yrotation Xrotation
            JOINT LeftToeEnd
            {
              OFFSET 6.7141 -0.234461 0.0
              CHANNELS 3 Zrotation Yrotation Xrotation
            }
          }
        }
      }
    }
    JOINT RightLeg
    {
      OFFSET -8.303923 2.592729 -10.047278
      CHANNELS 3 Zrotation Yrotation Xrotation
      JOINT RightShin
      {
        OFFSET -43.369682 0.0 1e-06
        CHANNELS 3 Zrotation Yrotation Xrotation
        JOINT RightFoot
        {
          OFFSET -42.260784 4e-06 2e-06
          CHANNELS 3 Zrotation Yrotation Xrotation
          JOINT RightToeBase
          {
            OFFSET -14.222245 -2e-06 -1e-06
            CHANNELS 3 Zrotation Yrotation Xrotation
            JOINT RightToeEnd
            {
              OFFSET -6.660062 0.232574 -2e-06
              CHANNELS 3 Zrotation Yrotation Xrotation
            }
          }
        }
      }
    }
  }
}
MOTION
Frames: 4
Frame Time: 0.03333333333333333
0.0 0.0 0.0 0.0 -0.0 0.0 -35.660736 11.245269 90.474113 -172.186981 -76.480408 -10.352999 -3.304547 -0.11289 0.1587 -11.539365 -0.174547 0.84821 14.461012 -2.361474 -0.705893 -10.659737 -6.519709 3.555127 -2.128014 0.715995 0.742046 -20.871368 5.862783 -0.636566 5e-06 -0.0 -0.0 -0.258816 -0.120455 0.050388 -0.236731 0.035537 0.018941 -0.259329 -0.266758 0.087661 -19.08898 -81.336479 27.738764 2.894496 -22.503765 -80.079102 121.61586 2.398063 1.27333 -12.417238 24.184664 -2.865741 17.636637 -26.322731 52.411201 -19.466669 -14.395597 29.410398 -1e-06 -8.774824 -2e-06 15.872265 -18.377289 6.224422 -0.609776 -1.795654 -3.88933 -4.807089 -11.046814 -2.93785 6e-06 -20.976025 -2e-06 -5.019968 -25.033564 -4.031882 6e-06 -1e-06 0.0 -10.634538 -5.686973 -3.56559 10.573278 -17.92296 -3.113904 2e-06 -13.821214 1e-06 -0.501776 -31.181522 -4.02702 -11.646106 -58.831615 7.664536 -13.982717 -7.1502 -2.875044 13.772733 -8.401495 -3.218241 0.347737 -34.211571 0.771651 -0.963027 -17.733381 2.621019 -0.0 0.0 0.0 -17.346424 -20.095224 -4.201784 21.757563 -1.638375 3.866428 2e-06 -6.338826 0.0 -1.697588 -22.591755 -6.19401 -1e-06 -6e-06 -1e-06 -149.482971 -79.427032 -20.903416 3.598178 -33.10984 -87.034004 130.741074 -2.203873 1.439358 -13.875478 27.221058 1.55004 22.182114 -20.375895 49.933319 -16.701817 -16.743532 28.476532 -2e-06 -12.690603 -0.0 15.62601 -17.979231 2.647877 -0.105919 -1.513856 -4.27588 -5.039042 -5.612872 -2.953557 3e-06 -11.020525 -1e-06 -6.111298 -15.895334 -3.84047 -1e-06 0.0 -1e-06 -10.283371 -5.680289 -4.341838 11.028296 -11.302406 -2.372633 -1.384269 -14.238581 -6.320122 -0.625441 -26.924194 -3.827602 -3.70364 -48.868366 -5.006553 -13.708526 -7.363477 -3.720938 18.141151 -14.052739 -3.242675 5e-06 -18.787271 -2e-06 -0.429711 -8.456043 2.555503 0.0 1e-06 0.0 -15.923538 -20.094484 -5.473584 30.419214 -7.190824 1.735925 2e-06 -8.162925 -1e-06 -1.861904 -22.861471 -6.167942 1e-06 0.0 -2e-06 175.360443 -23.064289 -93.195419 11.694686 -16.54283 58.468433 -76.285492 24.906334 -5.99194 -7.51728 1.548272 2.568611 -0.999999 -0.0 0.0 -8.170169 -14.573325 -104.335213 -0.959682 -18.736835 85.544579 -75.692673 11.075359 -9.159651 -9.552566 0.681737 1.756633 -1.000001 -0.0 -0.0 
0.0 0.0 0.0 0.0 -0.0 0.0 -35.630566 11.248946 90.509789 -172.228256 -76.500435 -10.303875 -3.310249 -0.118562 0.148531 -11.561391 -0.201262 0.83027 14.450596 -2.329765 -0.686474 -10.644939 -6.530728 3.543859 -2.133811 0.689502 0.70056 -20.937666 5.914605 -0.640328 6e-06 1e-06 -0.0 -0.262826 -0.128846 0.055205 -0.229693 0.020908 0.028989 -0.252811 -0.268599 0.087415 -18.965012 -81.302406 27.697668 2.912435 -22.519854 -79.955025 121.638924 2.424703 1.34375 -12.416237 24.34411 -2.626201 17.636631 -26.322729 52.411186 -19.466667 -14.395598 29.410393 -1e-06 -8.774822 -2e-06 15.850121 -18.395809 6.258536 -0.609777 -1.795655 -3.889328 -4.80709 -11.046813 -2.93785 4e-06 -20.976021 -1e-06 -5.019971 -25.033562 -4.031882 5e-06 2e-06 1e-06 -10.634535 -5.686972 -3.565586 10.573277 -17.922953 -3.113902 3e-06 -13.821212 1e-06 -0.501777 -31.181511 -4.027018 -11.656462 -58.856609 7.67896 -13.982716 -7.1502 -2.875041 13.772731 -8.401494 -3.218242 0.347734 -34.211559 0.771651 -0.963027 -17.733376 2.621019 -2e-06 1e-06 -0.0 -17.346422 -20.095222 -4.20178 21.757561 -1.638373 3.866428 2e-06 -6.338826 1e-06 -1.697587 -22.591755 -6.19401 -1e-06 -4e-06 -1e-06 -149.54274 -79.43148 -20.774675 3.677149 -33.098007 -86.977676 130.711563 -2.223162 1.456579 -13.972565 27.303331 1.77425 22.182116 -20.3759 49.933319 -16.701818 -16.743532 28.476536 -4e-06 -12.690603 -0.0 15.673617 -18.000149 2.647989 -0.105919 -1.513857 -4.275882 -5.039041 -5.612874 -2.953556 3e-06 -11.020528 -1e-06 -6.111297 -15.895341 -3.840469 1e-06 0.0 0.0 -10.283371 -5.68029 -4.341838 11.028297 -11.302409 -2.372634 -1.384268 -14.238587 -6.320121 -0.62544 -26.924202 -3.8276 -3.691577 -48.911335 -5.026745 -13.708527 -7.363477 -3.720938 18.141151 -14.052744 -3.242675 5e-06 -18.787275 -1e-06 -0.429712 -8.456045 2.555505 0.0 1e-06 -0.0 -15.923536 -20.09449 -5.473583 30.419222 -7.190828 1.735924 3e-06 -8.162929 -1e-06 -1.861903 -22.861485 -6.167943 1e-06 0.0 -1e-06 175.377167 -23.02994 -93.208008 11.64212 -16.477036 58.551449 -75.98909 24.730705 -5.801934 -7.562344 1.540474 2.566929 -0.999999 1e-06 -1e-06 -8.040888 -14.509999 -104.564407 -1.07939 -18.433004 85.846649 -75.283936 10.875161 -9.132453 -9.504656 0.683416 1.744997 -1.000001 0.0 0.0 
0.0 0.0 0.0 0.0 -0.0 0.0 -35.607616 11.239088 90.537354 -172.327988 -76.511177 -10.181149 -3.316052 -0.119474 0.143812 -11.5782 -0.226423 0.806059 14.446856 -2.329093 -0.662794 -10.648157 -6.524489 3.513161 -2.135382 0.658292 0.674761 -20.989389 5.932636 -0.651211 4e-06 0.0 0.0 -0.265002 -0.130915 0.056065 -0.226521 0.014852 0.032396 -0.248874 -0.265907 0.085439 -18.895412 -81.269585 27.663454 2.945038 -22.491726 -79.736275 121.646706 2.477779 1.419353 -12.367923 24.51314 -2.439641 17.636631 -26.322729 52.411201 -19.466669 -14.395602 29.410395 -0.0 -8.774824 -2e-06 15.823545 -18.398653 6.272604 -0.609776 -1.795654 -3.889329 -4.807089 -11.04681 -2.93785 7e-06 -20.976019 -2e-06 -5.01997 -25.033556 -4.031882 6e-06 2e-06 1e-06 -10.634537 -5.68697 -3.565588 10.573278 -17.922951 -3.113901 4e-06 -13.821211 1e-06 -0.501775 -31.181511 -4.027017 -11.657956 -58.851074 7.686252 -13.982719 -7.150198 -2.875041 13.772735 -8.401493 -3.218242 0.347737 -34.211555 0.771653 -0.963027 -17.733372 2.62102 -1e-06 0.0 -1e-06 -17.346422 -20.095219 -4.201783 21.757568 -1.638376 3.866428 3e-06 -6.338824 1e-06 -1.697589 -22.591747 -6.194008 -1e-06 -3e-06 -1e-06 -149.719025 -79.48584 -20.538851 3.789157 -33.069012 -86.869553 130.68338 -2.197139 1.448493 -14.001583 27.369524 2.060566 22.182108 -20.375887 49.933304 -16.701801 -16.743523 28.476519 -3e-06 -12.690594 -1e-06 15.746523 -18.025993 2.649508 -0.105919 -1.513856 -4.27588 -5.039039 -5.612868 -2.953556 3e-06 -11.020519 -1e-06 -6.111295 -15.89533 -3.840469 -0.0 1e-06 -0.0 -10.283365 -5.680285 -4.341838 11.028287 -11.3024 -2.37263 -1.384268 -14.238574 -6.320119 -0.62544 -26.924177 -3.827599 -3.71338 -48.982895 -5.019195 -13.708518 -7.363474 -3.720939 18.14114 -14.052736 -3.24267 4e-06 -18.787264 -0.0 -0.429712 -8.456039 2.555503 0.0 2e-06 0.0 -15.92353 -20.094477 -5.473584 30.419197 -7.190823 1.735927 2e-06 -8.162922 0.0 -1.861903 -22.861464 -6.167938 0.0 -3e-06 -1e-06 175.41008 -22.989492 -93.133675 11.636615 -16.38772 58.513035 -75.668877 24.554474 -5.635426 -7.574208 1.53017 2.571101 -0.999999 -0.0 -1e-06 -7.923049 -14.4702 -104.854507 -1.205168 -18.195986 86.203499 -74.837723 10.648821 -9.101923 -9.423158 0.678568 1.736138 -1.000002 0.0 -0.0 
0.0 0.0 0.0 0.0 -0.0 0.0 -35.596245 11.202455 90.549728 -172.464752 -76.51178 -10.011497 -3.320145 -0.119598 0.140185 -11.583461 -0.24062 0.781212 14.438767 -2.364049 -0.641348 -10.679353 -6.500903 3.478188 -2.133531 0.647582 0.671797 -21.00131 5.887745 -0.648801 7e-06 0.0 -0.0 -0.264309 -0.124531 0.05124 -0.227043 0.020673 0.027004 -0.248075 -0.25808 0.080453 -18.872442 -81.252548 27.628799 2.986666 -22.41185 -79.497971 121.626167 2.535259 1.481299 -12.301227 24.672167 -2.361525 17.636639 -26.322735 52.411201 -19.466663 -14.395597 29.410393 1e-06 -8.774822 -3e-06 15.803571 -18.392857 6.263814 -0.609777 -1.795654 -3.889329 -4.80709 -11.046813 -2.93785 4e-06 -20.976021 -1e-06 -5.01997 -25.033562 -4.031882 5e-06 -1e-06 0.0 -10.634535 -5.686973 -3.565589 10.573272 -17.922953 -3.113899 1e-06 -13.821213 2e-06 -0.501778 -31.181511 -4.027018 -11.639915 -58.829029 7.665446 -13.982716 -7.150199 -2.875043 13.772731 -8.401493 -3.218241 0.347731 -34.211559 0.771656 -0.963029 -17.733376 2.621021 -2e-06 1e-06 -0.0 -17.346422 -20.095221 -4.201783 21.757561 -1.638373 3.866429 2e-06 -6.338825 1e-06 -1.69759 -22.591751 -6.19401 -1e-06 -6e-06 -2e-06 -149.961197 -79.582024 -20.249329 3.894635 -33.03191 -86.684723 130.661774 -2.119263 1.409069 -13.950279 27.448057 2.299805 22.182116 -20.3759 49.933327 -16.701807 -16.743528 28.476532 -2e-06 -12.6906 -1e-06 15.822046 -18.04595 2.656672 -0.10592 -1.513856 -4.275881 -5.03904 -5.612871 -2.953557 2e-06 -11.020521 -1e-06 -6.111297 -15.89533 -3.84047 1e-06 -1e-06 0.0 -10.28337 -5.680287 -4.341839 11.028291 -11.302402 -2.37263 -1.384269 -14.238577 -6.320121 -0.625441 -26.924187 -3.8276 -3.752969 -49.087265 -4.983211 -13.708524 -7.363475 -3.720941 18.141146 -14.052739 -3.242672 4e-06 -18.787266 0.0 -0.429712 -8.456039 2.555504 0.0 1e-06 -0.0 -15.923538 -20.094479 -5.473586 30.419207 -7.190825 1.735927 2e-06 -8.162922 1e-06 -1.861903 -22.861464 -6.167938 0.0 -1e-06 -1e-06 175.444077 -22.940475 -93.039619 11.649286 -16.325502 58.435112 -75.322182 24.38059 -5.500711 -7.541305 1.526246 2.576345 -1.0 -0.0 1e-06 -7.860546 -14.461674 -105.209206 -1.337071 -18.093624 86.663475 -74.260139 10.316979 -9.047399 -9.279018 0.670032 1.733942 -1.000001 -0.0 0.0 
